# xmcd
#
# Track frame offsets:
#	150
#	14795
#	25790
#	36435
#	47460
#	57737
#	66855
#	81042
#	94285
#	109517
#	123935
#	134457
#	147780
#	158587
#	172257
#	186312
#	198510
#	206837
#	217800
#	234525
#	244812
#	262855
#
# Disc length: 3575 seconds
#
# Revision: 5
# Processed by: cddbd v1.5.2PL0 Copyright (c) Steve Scherf et al.
# Submitted via: audiograbber 1.83.01
#
DISCID=420df516
DTITLE=Otis Redding - Remember Me  
DYEAR=1992
DGENRE=Oldies
TTITLE0=Trick Or Treat
TTITLE1=Loving By The Pound - Take 1 
TTITLE2=There Goes My Baby
TTITLE3=Remember Me
TTITLE4=Send Me Some Lovin'
TTITLE5=She's All Right
TTITLE6=Cupid
TTITLE7=The Boston Monkey
TTITLE8=Don't Be Afraid Of Love
TTITLE9=Little Ol' Me
TTITLE10=Pounds And Hundreds  
TTITLE11=You Got Good Lovin'
TTITLE12=Gone Again
TTITLE13=I'm Coming Home
TTITLE14=(Sittin' On) The Dock Of The Bay - Take 1
TTITLE15=(Sittin' On) The Dock Of The Bay - Take 2 
TTITLE16=Respect  (Alternate Version)
TTITLE17=Open The Door  (Alternate Version)
TTITLE18=I've Got Dreams To Remember
TTITLE19=Come To Me  (Alternate Version)
TTITLE20=Try A Little Tenderness - Take 1 
TTITLE21=Stay In School
EXTD=
EXTT0=
EXTT1=Take 1
EXTT2=
EXTT3=
EXTT4=
EXTT5=
EXTT6=
EXTT7=
EXTT8=
EXTT9=
EXTT10=
EXTT11=
EXTT12=
EXTT13=
EXTT14=Take 1
EXTT15=Take 2
EXTT16=Alternate Take
EXTT17=Alternate Take
EXTT18=
EXTT19=Alternate
EXTT20=Take 1
EXTT21=
PLAYORDER=
